<svg xmlns="http://www.w3.org/2000/svg" viewBox="0.8277706503868103 5.473172187805176 22.344459533691406 13.05686092376709"><g data-name="Layer 2"><path d="M12 18.53a11.71 11.71 0 0 1-7.44-2.65l-3.09-2.53a1.74 1.74 0 0 1 0-2.7l3.09-2.53a11.78 11.78 0 0 1 14.88 0l3.09 2.53a1.74 1.74 0 0 1 0 2.7l-3.09 2.53A11.69 11.69 0 0 1 12 18.53zM12 7a10.22 10.22 0 0 0-6.49 2.28l-3.09 2.53a.25.25 0 0 0 0 .38l3.09 2.53a10.27 10.27 0 0 0 13 0l3.09-2.53a.25.25 0 0 0 0-.38l-3.11-2.53A10.24 10.24 0 0 0 12 7z" opacity="1" data-original="#000000"/><path d="M12 18.25A6.25 6.25 0 1 1 18.25 12 6.25 6.25 0 0 1 12 18.25zm0-11A4.75 4.75 0 1 0 16.75 12 4.75 4.75 0 0 0 12 7.25z" opacity="1" data-original="#000000"/><path d="M15 12a3 3 0 1 1-2.2-2.89 1.47 1.47 0 0 0-.3.89 1.5 1.5 0 0 0 1.5 1.5 1.47 1.47 0 0 0 .89-.3 3 3 0 0 1 .11.8z" opacity="1" data-original="#000000"/></g></svg>