<svg xmlns="http://www.w3.org/2000/svg" version="1.1" xmlns:xlink="http://www.w3.org/1999/xlink" width="512" height="512" x="0" y="0" viewBox="0 0 510 510" style="enable-background:new 0 0 512 512" xml:space="preserve" fill-rule="evenodd"><g><path d="M381.551 95.875h90.704c3.863 0 7-3.137 7-7 0-3.864-3.137-7-7-7h-8.72c2.177-6.051 7.9-10.446 14.71-10.608 8.846-.21 16.197 6.802 16.407 15.647 1.464 61.673-1.343 94.141-15.165 122.012-6.01 12.119-14.135 23.432-25.154 35.811a564.434 564.434 0 0 0-11.175-11.211c-4.134-4.042-7.954-7.842-11.476-11.481 8.192-9.321 14.44-18.008 19.08-27.364a93.404 93.404 0 0 0 2.788-6.171h-62.771a93.404 93.404 0 0 0 2.788 6.171c7.964 16.059 20.666 30.145 39.804 48.855 22.394 21.893 36.797 38.747 46.116 57.538 13.822 27.871 16.629 60.339 15.165 122.012-.21 8.845-7.561 15.857-16.407 15.647s-15.857-7.562-15.647-16.408c.067-2.8.127-5.533.18-8.2h-90.704c-3.863 0-7 3.137-7 7 0 3.864 3.137 7 7 7h8.72c-2.177 6.051-7.9 10.446-14.71 10.608-8.846.21-16.198-6.802-16.407-15.647-1.464-61.673 1.343-94.141 15.165-122.012 6.01-12.119 14.135-23.432 25.154-35.811a564.434 564.434 0 0 0 11.175 11.211c4.134 4.042 7.954 7.842 11.476 11.481-8.192 9.321-14.441 18.008-19.08 27.364a93.404 93.404 0 0 0-2.788 6.171h62.771a93.404 93.404 0 0 0-2.788-6.171c-7.964-16.059-20.666-30.145-39.805-48.855-22.394-21.893-36.797-38.747-46.115-57.538-13.822-27.871-16.629-60.339-15.165-122.012.209-8.845 7.561-15.857 16.407-15.647 8.845.21 15.856 7.562 15.647 16.408-.067 2.8-.127 5.533-.18 8.2zm76.535 239.615h-80.557c-3.863 0-7 3.137-7 7s3.137 7 7 7h6.056a197.476 197.476 0 0 0-1.226 11.318h79.611c-.764-9.432-2-17.731-3.884-25.318zm4.664 39.318h-90.676c-3.863 0-7 3.136-7 7 0 3.863 3.137 7 7 7h9.244c-.02 3.625-.01 7.394.025 11.317h81.643c.083-9.248.026-17.633-.236-25.317zM386.242 174.51h79.996c3.864 0 7-3.137 7-7s-3.136-7-7-7h-5.494c.501-3.593.905-7.356 1.226-11.318h-79.611c.764 9.432 2 17.731 3.883 25.318zm-4.663-39.318h90.676c3.863 0 7-3.136 7-7 0-3.863-3.137-7-7-7h-9.244c.02-3.625.01-7.394-.025-11.317h-81.643c-.083 9.248-.026 17.633.236 25.317zM284.933 248V34.198a7 7 0 0 1 7-7h100.082c3.863 0 7 3.137 7 7 0 3.864-3.137 7-7 7h-93.082v427.604h93.082c3.863 0 7 3.136 7 7 0 3.863-3.137 7-7 7H291.933a7 7 0 0 1-7-7V262h-53.944c-3.864 0-7-3.137-7-7s3.136-7 7-7zm-151.198-97.938c14.598-15.981 25.445-30.459 33.253-46.203 9.052-18.254 13.965-38.073 16.376-63.412h47.848c-2.96 35.008-9.4 60.998-21.183 84.757-9.838 19.837-23.456 38.233-42.38 58.844-5.287-5.472-10.923-11.119-16.933-16.994-6.102-5.966-11.755-11.593-16.981-16.992zm-19.197 88.359c-14.598 15.981-25.445 30.459-33.252 46.203-18.135 36.568-19.655 79.421-17.735 160.338.314 13.254-10.191 24.27-23.445 24.584-13.255.315-24.271-10.191-24.585-23.445-2.193-92.41 2.013-141.06 22.723-182.822 9.838-19.837 23.457-38.233 42.38-58.844 5.287 5.472 10.924 11.119 16.933 16.994 6.102 5.966 11.755 11.594 16.981 16.992zM17.062 40.447H64.91c2.411 25.339 7.323 45.158 16.376 63.412 11.933 24.063 30.966 45.17 59.643 73.206 33.555 32.804 55.137 58.058 69.1 86.214 20.711 41.762 24.916 90.412 22.723 182.822-.314 13.254-11.33 23.76-24.584 23.445-13.254-.314-23.76-11.33-23.445-24.584 1.92-80.917.399-123.77-17.735-160.338-11.934-24.063-30.967-45.17-59.644-73.206-33.555-32.804-55.137-58.058-69.1-86.214-11.782-23.759-18.223-49.749-21.182-84.757z"  opacity="1" data-original="#000000"/></g></svg>