<svg xmlns="http://www.w3.org/2000/svg" viewBox="3.0002195835113525 0 121.99978637695312 128.00067138671875"><g><path d="M3.72 127.537a1.998 1.998 0 0 0 2.817-.258L46.397 79.4 65.568 93.3l-20.252 31.62a2 2 0 0 0 .605 2.764 2.032 2.032 0 0 0 2.763-.606L70.408 93.16a2 2 0 0 0 .262-1.54l-2.174-9.18 3.585-4.929a4.82 4.82 0 0 0-1.036-6.636l-5.456-3.965a4.775 4.775 0 0 0-6.646 1.038l-3.935 5.41-8.547.66a2.002 2.002 0 0 0-1.382.715L3.463 124.72a2 2 0 0 0 .257 2.816zm58.452-57.229a.763.763 0 0 1 1.066-.162l5.455 3.966a.743.743 0 0 1 .158 1.039l-2.95 4.055-6.673-4.85zm-5.751 6.952 8.14 5.916 1.272 5.375-14.981-10.86z" opacity="1" data-original="#000000"/><path d="M47.8 105.6a2.032 2.032 0 0 0 2.8-.4 2 2 0 0 0-.4-2.8l-8-6a2 2 0 1 0-2.4 3.2zM34.4 103.8a2 2 0 0 0 .4 2.8s7.995 5.996 8 6a2.032 2.032 0 0 0 2.8-.4 2 2 0 0 0-.4-2.8l-8-6a2 2 0 0 0-2.8.4zM43 41v30.232l.023-.014a6.052 6.052 0 0 1 .638-.416l.086-.05a6.074 6.074 0 0 1 .715-.334c.032-.013.064-.022.096-.033a6.011 6.011 0 0 1 .638-.194 5.91 5.91 0 0 1 .194-.045 5.91 5.91 0 0 1 .76-.116l6.708-.518 2.85-3.917a8.815 8.815 0 0 1 7.087-3.593 8.697 8.697 0 0 1 5.145 1.672l5.456 3.966a8.867 8.867 0 0 1 1.92 12.223l-2.504 3.444 1.75 7.392a6.028 6.028 0 0 1-.788 4.62l-10.053 15.697v.001l-1.66 2.593A40.968 40.968 0 0 0 125 79V41a41 41 0 0 0-82 0zm10 24a2 2 0 1 1 2-2 2 2 0 0 1-2 2zm9.207-38.666a2 2 0 1 1-2 2 2 2 0 0 1 2-2zM67 60h-4a2 2 0 0 1 0-4h4a2 2 0 0 1 0 4zm4-8H59a2 2 0 0 1 0-4h12a2 2 0 0 1 0 4zm.502-30.96a2 2 0 1 1 2-2 2 2 0 0 1-2 2zm4.815 7.604a2 2 0 1 1 2 2 2 2 0 0 1-2-2zM86 102h-4a2 2 0 0 1 0-4h4a2 2 0 0 1 0 4zm4-8H78a2 2 0 0 1 0-4h12a2 2 0 0 1 0 4zm9-36a2 2 0 0 1 2-2h4a2 2 0 0 1 0 4h-4a2 2 0 0 1-2-2zm4.167 25.833a2 2 0 1 1 2-2 2 2 0 0 1-2 2zM106 74a2 2 0 1 1 2 2 2 2 0 0 1-2-2zm7.333 4.667a2 2 0 1 1-2 2 2 2 0 0 1 2-2zm-4 12.5a2 2 0 1 1 2-2 2 2 0 0 1-2 2zm-5.302-69.79a2 2 0 1 1-2 2 2 2 0 0 1 2-2zM97 48h12a2 2 0 0 1 0 4H97a2 2 0 0 1 0-4zm-3.812-21.356a2 2 0 1 1-2 2 2 2 0 0 1 2-2zM89.161 15.8a2 2 0 1 1-2 2 2 2 0 0 1 2-2zM87 84a2 2 0 0 1-2 2h-2a2 2 0 0 1 0-4h2a2 2 0 0 1 2 2z"  opacity="1" data-original="#000000"/></g></svg>