<svg xmlns="http://www.w3.org/2000/svg" version="1.1" xmlns:xlink="http://www.w3.org/1999/xlink" width="512" height="512" x="0" y="0" viewBox="0 0 174.344 174.344" style="enable-background:new 0 0 512 512" xml:space="preserve"><g><path d="m72.351 91.771-10.947 10.953a1.517 1.517 0 0 0 2.143 2.146l14.47-14.473-5.666 1.374zM67.747 111.554c.993.993 3.032.987 4.909.16l.798-1.709 2.68-11.117-7.317 7.312c-1.768 1.772-2.25 4.178-1.07 5.354zM11.299 48.699l19.26-19.261c1.702-1.699 4.424-1.726 6.203-.139L12.366 53.696a1.517 1.517 0 0 0 2.143 2.146l24.426-24.435 2.32 2.317-24.436 24.435a1.511 1.511 0 0 0 0 2.143 1.511 1.511 0 0 0 2.143 0l24.435-24.435 2.317 2.32-24.435 24.426a1.517 1.517 0 0 0 0 2.143 1.511 1.511 0 0 0 2.143 0l24.435-24.43 2.32 2.32-24.435 24.435a1.511 1.511 0 0 0 0 2.143 1.517 1.517 0 0 0 2.143 0L52.32 44.789l2.317 2.317-24.429 24.435a1.517 1.517 0 0 0 0 2.143 1.511 1.511 0 0 0 2.143 0L56.78 49.249l2.317 2.32-24.433 24.432a1.511 1.511 0 0 0 0 2.143 1.511 1.511 0 0 0 2.143 0l24.432-24.433 2.32 2.317-24.435 24.43a1.511 1.511 0 0 0 0 2.143 1.517 1.517 0 0 0 2.143 0l24.436-24.429 2.317 2.317-24.437 24.434a1.517 1.517 0 0 0 0 2.143 1.511 1.511 0 0 0 2.143 0l24.435-24.435 2.317 2.32-20.983 20.983 8.015-3.735 15.105-15.111 2.32 2.317-8.748 8.745 8.015-3.732 2.87-2.87 1.017 1.017 6.458-3.945 2.94-3.771-48.22-48.223a4.553 4.553 0 0 0-6.422 0L7.025 44.443c-1.768 1.767-2.243 4.17-1.07 5.352 1.174 1.18 3.583.665 5.344-1.096zM168.325 143.655c-8.565-8.559-60.994-60.984-60.994-60.984a912.693 912.693 0 0 0-3.623-3.617l-3.765 2.94-4.25 7.001-6.44 13.828c4.247-1.772 8.301-2.89 10.589-1.962 19.801 8.026 29.689 46.802 38.521 55.632 8.83 8.831 35.31-7.494 29.962-12.838zM56.948 98.261a1.52 1.52 0 0 0 0 2.146 1.506 1.506 0 0 0 2.143 0l7.143-7.146-5.671 1.383-3.615 3.617z" opacity="1" data-original="#000000"/><path d="m75.7 124.753 17.407-37.33 4.536-7.474 70.888-55.369-.821-1.768-56.034 34.046L145.722.821 143.954 0 88.585 70.888l-7.468 4.54-37.339 17.407c-6.052-7.409-16.547-10.146-25.608-5.92-10.713 4.998-15.362 17.776-10.367 28.486 4.998 10.717 17.776 15.369 28.49 10.368 10.71-4.989 15.359-17.78 10.367-28.49l10.592-4.936 25.044-6.1-6.1 25.05-4.944 10.586c-10.713-5-23.492-.343-28.484 10.367-4.995 10.711-.346 23.49 10.368 28.49 1.2.556 2.415.958 3.65 1.277l-2.819 12.329 6.735-1.229 1.212-10.414c8.163.094 16.045-4.457 19.707-12.336 4.221-9.06 1.488-19.557-5.921-25.61zm14.564-52.201a4.045 4.045 0 0 1 5.718 0c1.572 1.578 1.579 4.146 0 5.719a4.05 4.05 0 0 1-5.727 0 4.049 4.049 0 0 1 .009-5.719zm-56.268 48.323c-8.012 3.741-17.576.255-21.311-7.755-3.739-8.015-.254-17.578 7.761-21.314 8.018-3.748 17.582-.26 21.317 7.755 3.741 8.015.26 17.579-7.767 21.314zm42.726 27.214c-3.732 8.015-13.291 11.49-21.306 7.761-8.018-3.742-11.499-13.3-7.764-21.309 3.745-8.026 13.302-11.515 21.317-7.767 8.013 3.736 11.5 13.299 7.753 21.315z"  opacity="1" data-original="#000000"/></g></svg>