<svg xmlns="http://www.w3.org/2000/svg" version="1.1" xmlns:xlink="http://www.w3.org/1999/xlink" width="512" height="512" x="0" y="0" viewBox="0 0 96 96" style="enable-background:new 0 0 512 512" xml:space="preserve"><g><path d="M68.835 55.784c4.215-.948 7.321-4.68 7.321-9.13a9.33 9.33 0 0 0-7.244-9.132V32.47c0-7.605-2.964-14.756-8.346-20.135-6.536-6.536-15.902-9.49-25.049-7.921-13.39 2.307-23.488 14.734-23.488 28.907v4.2a9.333 9.333 0 0 0-7.244 9.132c0 4.448 3.105 8.179 7.321 9.129.071.937.189 1.87.368 2.79 1.063 5.485 4.408 10.517 9.422 14.17 1.896 1.378 4.625 3.547 6.574 5.113 2.295 1.846 4.717 3.121 7.198 3.792 1.548.419 3.074.614 4.803.614.704 0 1.378-.028 2.023-.089 3.838-.344 7.651-2.049 11.024-4.928 2.361-2.013 4.24-3.526 5.582-4.502 4.874-3.54 8.172-8.418 9.288-13.737.222-1.063.366-2.14.447-3.221zm.078-14.471a5.718 5.718 0 0 1 3.608 5.34 5.727 5.727 0 0 1-3.608 5.319zM12.029 51.958c-2.104-.87-3.608-2.95-3.608-5.304 0-2.379 1.505-4.47 3.608-5.326zm53.248 1.977c0 1.449-.151 2.904-.448 4.325-.93 4.434-3.723 8.532-7.865 11.542-1.418 1.03-3.371 2.603-5.806 4.676-2.797 2.386-5.906 3.796-8.998 4.073-1.864.188-3.783.067-5.544-.412-1.993-.54-3.967-1.587-5.87-3.117-1.99-1.601-4.779-3.813-6.712-5.219-4.267-3.107-7.105-7.342-7.992-11.919a20.858 20.858 0 0 1-.379-3.948v-15.49l2.793-1.432a5.988 5.988 0 0 0 2.908-3.322l1.988-5.595 5.611 1.942a34.14 34.14 0 0 0 22.345-.004l5.592-1.938 2.48 5.839a5.99 5.99 0 0 0 2.869 3.032l3.027 1.488v15.479z" opacity="1" data-original="#000000"/><path d="m34.17 61.477-2.493 2.649c2.415 2.272 5.538 3.526 8.793 3.526 3.327 0 6.445-1.26 8.782-3.551l-2.545-2.599c-3.274 3.216-9.028 3.277-12.537-.025zM35.398 45.585l-3.313-1.498c-1.159 2.564-5.361 2.564-6.521 0l-3.313 1.498c1.159 2.56 3.739 4.214 6.573 4.214 2.837 0 5.416-1.654 6.574-4.214zM58.688 45.585l-3.313-1.498c-.571 1.26-1.868 2.077-3.305 2.077-1.41 0-2.689-.817-3.26-2.077l-3.313 1.498c1.159 2.56 3.739 4.214 6.573 4.214 2.863 0 5.461-1.654 6.618-4.214zM36.097 56.744l.646 1.693a1.816 1.816 0 0 0 1.698 1.172h4.761v-3.636h-3.508l-.025-.067 1.239-7.633-3.588-.582-1.318 8.116c-.052.315-.019.639.095.937zM51.669 41.164c2.858 0 4.703.657 5.246 1.097l2.291-2.826c-1.473-1.193-4.291-1.907-7.537-1.907-3.247 0-6.064.714-7.537 1.907l2.291 2.826c.543-.44 2.388-1.097 5.246-1.097zM29.331 41.164c2.838 0 4.724.671 5.245 1.097l2.291-2.826c-1.473-1.193-4.29-1.907-7.536-1.907-3.284 0-6.123.714-7.595 1.907l2.291 2.826c.543-.44 2.403-1.097 5.304-1.097zM89.389 75.402c-1.302-.675-2.83-.455-3.677.486l-2.506-.366a7.109 7.109 0 0 0-5.502 1.512l-4.67 3.788a13.626 13.626 0 0 1-2.7 1.704l-2.838 1.36a3.36 3.36 0 0 0-1.923 2.982 3.363 3.363 0 0 0 1.81 3.061 18.116 18.116 0 0 0 8.43 2.07c3.91 0 7.802-1.25 11.02-3.692l1.018-.774a7.067 7.067 0 0 0 2.734-4.626l.592-4.012a3.337 3.337 0 0 0-1.788-3.493zM76.094 64.008l-1.623-2.414-5.805 3.902a1.458 1.458 0 0 0-.396 2.021l3.902 5.801 2.414-1.626-1.921-2.855c1.557.14 3.186.692 4.562 1.595 1.077.703 2.916 2.23 3.125 4.527l2.897-.263c-.238-2.606-1.811-4.985-4.43-6.7a13.162 13.162 0 0 0-5.639-2.03zM58.923 54.741c.216-.16.471-.263.833-.312 0 0 .499-.092 1.025-.217l-.671-2.833c-.42.103-.819.177-.812.181a4.446 4.446 0 0 0-2.123.859zM54.225 56.167l1.478-2.071 2.367 1.69-1.478 2.07zM53 60.987l-2.904.156c.081 1.53 1.271 2.684 1.988 3.043l.35.163.996-2.741c-.156-.099-.421-.433-.43-.621zM62.038 55.327l2.632-1.236c-.581-1.235-1.096-2.098-1.534-2.57l-2.131 1.981c.13.139.495.682 1.033 1.825zM53.664 56.943l-1.423 1.037a5.893 5.893 0 0 0-.647.38l1.634 2.407c.094-.064.201-.128.514-.305l1.614-1.154zM57.869 60.379l1.725 2.343a18.83 18.83 0 0 0 2.088-1.807l-2.052-2.059a15.856 15.856 0 0 1-1.761 1.523zM61.755 56.364l-.443.579c-.167.217-.347.44-.538.667L63 59.485a20.8 20.8 0 0 0 .62-.774l.444-.579c.267-.352.481-.739.637-1.154l-2.726-1.015c-.054.145-.128.28-.22.401zM54.671 61.824l.22 2.897c.942-.071 1.942-.376 2.971-.909l-1.337-2.585c-.681.356-1.305.555-1.854.597z" opacity="1"/></g></svg>