<svg xmlns="http://www.w3.org/2000/svg" version="1.1" xmlns:xlink="http://www.w3.org/1999/xlink" width="512" height="512" x="0" y="0" viewBox="0 0 96 96" style="enable-background:new 0 0 512 512" xml:space="preserve"><g><path d="M75.738 36.656v-4.893c0-7.414-2.89-14.387-8.138-19.637-6.372-6.373-15.503-9.254-24.43-7.722-13.061 2.25-22.91 14.37-22.91 28.19v4.063a9.125 9.125 0 0 0-7.055 8.922c0 4.343 3.031 7.982 7.143 8.92.071.905.175 1.807.346 2.697 1.039 5.354 4.303 10.263 9.192 13.822 1.846 1.344 4.504 3.451 6.401 4.978 2.245 1.805 4.608 3.052 7.023 3.702 1.512.41 3.003.601 4.69.601.684 0 1.339-.028 1.973-.087 3.745-.336 7.464-2 10.761-4.81 2.254-1.924 4.133-3.437 5.433-4.381 4.755-3.453 7.972-8.214 9.058-13.405.215-1.023.339-2.067.418-3.116 4.116-.935 7.15-4.575 7.15-8.922a9.117 9.117 0 0 0-7.055-8.922zM20.26 50.671c-2.003-.856-3.437-2.839-3.437-5.093 0-2.28 1.434-4.27 3.437-5.112zm51.861 1.999c0 1.415-.145 2.828-.434 4.204-.903 4.31-3.618 8.295-7.645 11.218-1.392 1.012-3.296 2.545-5.656 4.557-2.72 2.321-5.741 3.69-8.736 3.958-1.813.157-3.678.062-5.395-.403-1.929-.519-3.847-1.539-5.698-3.029-1.939-1.558-4.656-3.711-6.542-5.084-4.144-3.019-6.903-7.133-7.767-11.586a20.085 20.085 0 0 1-.369-3.837V39.597l3.508-1.799a7.625 7.625 0 0 0 3.713-4.239l1.335-3.759 3.768 1.305a35.222 35.222 0 0 0 22.947-.004l3.851-1.335 1.756 4.132a7.627 7.627 0 0 0 3.66 3.868l3.706 1.823V52.67zm0-17.112L70.01 34.52a4.03 4.03 0 0 1-1.927-2.035l-2.415-5.688a1.8 1.8 0 0 0-2.257-1.002l-5.446 1.887a31.567 31.567 0 0 1-20.58.004l-5.463-1.892a1.808 1.808 0 0 0-2.296 1.104l-1.936 5.449a4.013 4.013 0 0 1-1.956 2.233l-1.856.952v-2.939c0-12.084 8.56-22.67 19.907-24.625a25.084 25.084 0 0 1 4.26-.367c6.363 0 12.391 2.477 16.998 7.083 4.564 4.566 7.078 10.632 7.078 17.079zm3.617 15.126v-10.23a5.516 5.516 0 0 1 3.439 5.125c0 2.3-1.413 4.265-3.439 5.105z" opacity="1" /><path d="M54.047 60.013c-3.176 3.116-8.758 3.181-12.156-.025l-2.482 2.632c2.358 2.224 5.409 3.448 8.59 3.448 3.25 0 6.299-1.233 8.581-3.473zM43.096 44.553l-3.296-1.49c-1.117 2.468-5.165 2.464-6.281 0l-3.296 1.491c1.134 2.506 3.66 4.126 6.437 4.126 2.776 0 5.302-1.62 6.436-4.127zM59.299 45.062c-1.358 0-2.591-.784-3.139-2l-3.296 1.491c1.134 2.506 3.66 4.126 6.435 4.126 2.803 0 5.347-1.62 6.48-4.126l-3.296-1.491c-.551 1.216-1.799 2-3.184 2zM43.705 55.418l.627 1.652c.269.701.94 1.166 1.692 1.166h4.637v-3.617h-3.39l-.013-.032 1.207-7.426-3.571-.579-1.284 7.905c-.051.313-.018.635.095.931zM51.542 38.519l2.279 2.809c.524-.426 2.312-1.058 5.085-1.058s4.561.632 5.085 1.058l2.279-2.809c-1.441-1.169-4.193-1.867-7.364-1.867-3.17 0-5.922.698-7.364 1.867zM37.15 40.27c2.754 0 4.582.65 5.085 1.058l2.279-2.809c-1.441-1.169-4.195-1.867-7.364-1.867-3.204 0-5.977.698-7.418 1.867l2.278 2.809c.523-.426 2.326-1.058 5.14-1.058zM58.878 80.236c-6.575 4.257-15.182 4.257-21.757 0a1.447 1.447 0 0 0-2.211 1.468C35.546 85.265 39.068 92 47.851 92c7.943 0 12.105-6.62 13.195-10.12a1.445 1.445 0 0 0-2.168-1.644zm-11.027 8.871c-4.764 0-7.337-2.376-8.69-4.526 5.401 2.284 11.607 2.374 17.063.251-1.601 2.097-4.256 4.275-8.373 4.275zM70.921 73.734c-.383 0-.75.152-1.023.424l-4.536 4.534 2.049 2.045 2.137-2.138c-.101 3.274-.687 4.727-4.176 5.637l.731 2.801c5.324-1.39 6.184-4.41 6.327-8.3l2 1.999 2.047-2.045-4.534-4.534a1.444 1.444 0 0 0-1.022-.423zM30.637 77.998l-4.534-4.534c-.544-.544-1.505-.544-2.047 0l-4.534 4.534 2.049 2.045 1.998-1.999c.143 3.89 1.003 6.91 6.329 8.3l.731-2.802c-3.49-.91-4.075-2.363-4.177-5.637l2.139 2.138zM39.789 66.88l-2.904 2.155c.579.781 1.24 1.501 1.969 2.141l2.388-2.717a10.172 10.172 0 0 1-1.453-1.579zM46.464 70.846l-.505 3.582c.634.088 1.273.134 1.924.136.325 0 .651-.012.979-.034l-.248-3.61a9.75 9.75 0 0 1-2.15-.074zM50.419 70.623l.915 3.501c.936-.246 1.853-.59 2.72-1.026l-1.627-3.232c-.639.323-1.316.577-2.008.757zM40.877 72.648c.837.498 1.731.906 2.653 1.214l1.141-3.434a9.853 9.853 0 0 1-1.943-.888zM53.994 68.892l2.176 2.89a13.77 13.77 0 0 0 2.126-1.991l-2.738-2.363a10.17 10.17 0 0 1-1.564 1.464z" opacity="1" data-original="#000000"/></g></svg>