<svg xmlns="http://www.w3.org/2000/svg" version="1.1" xmlns:xlink="http://www.w3.org/1999/xlink" width="512" height="512" x="0" y="0" viewBox="0 0 96 96" style="enable-background:new 0 0 512 512" xml:space="preserve"><g><path d="M74.646 41.118v11.701c2.339-.942 3.98-3.195 3.98-5.841a6.279 6.279 0 0 0-3.98-5.86zM8.042 46.978c0 2.596 1.669 4.873 3.99 5.831V41.128c-2.321.941-3.99 3.225-3.99 5.85zM20.422 32.042l2.187-6.16a2 2 0 0 1 2.532-1.217l6.177 2.138a35.735 35.735 0 0 0 23.295-.006l6.157-2.132c.986-.343 2.08.14 2.488 1.106l2.73 6.428a4.612 4.612 0 0 0 2.201 2.325l2.469 1.215V31.36c0-1.011-.066-2.012-.175-3.004-.018-.073-.059-.135-.067-.211-.226-1.805-.52-3.246-.926-4.533-.033-.109-.035-.218-.051-.328-1.297-4.197-3.606-8.049-6.811-11.254-6.374-6.374-15.145-9.147-24.056-7.62-12.855 2.197-22.551 14.195-22.551 27.907v3.388l2.167-1.111a4.605 4.605 0 0 0 2.234-2.552zM60.397 78.379a149.393 149.393 0 0 0-2.716 2.276c-3.696 3.172-7.891 5.046-12.133 5.418-.646.08-1.406.086-2.208.086-1.965 0-3.603-.207-5.309-.668-2.703-.736-5.36-2.132-7.899-4.152a231.466 231.466 0 0 0-3.671-2.92c.89 3.795 1.202 8.716-.925 13.582h35.842c-2.003-5.083-1.767-9.919-.981-13.622zM68.318 69.802c1.76 3.788 4.387 6.598 5.947 8.056l4.023-4.023-11.762-11.786c-.004 2.592.596 5.188 1.792 7.753zM81.125 76.637l-2.296 2.297 6.458 5.965c.678.674 1.685.67 2.302.055.641-.641.364-1.49-.194-2.049z" opacity="1" /><path d="M70.137 59.777c.347-1.576.521-3.207.521-4.765V40.185l-4.228-2.08a8.578 8.578 0 0 1-4.113-4.345l-2.002-4.715-4.397 1.523a39.813 39.813 0 0 1-25.906.006l-4.307-1.492-1.527 4.296a8.548 8.548 0 0 1-4.171 4.763l-3.986 2.046v14.825c0 1.422.137 2.882.407 4.343 1.007 5.079 4.14 9.741 8.813 13.102a271.486 271.486 0 0 1 7.395 5.776c2.094 1.665 4.267 2.818 6.442 3.41 1.422.385 2.874.528 4.52.528.538 0 1.05-.004 1.535-.062 3.475-.306 6.892-1.854 9.952-4.481 1.163-.997 4.114-3.494 6.43-5.168a23.725 23.725 0 0 0 2.686-2.311c-1.692-4.247-2.113-8.57-1.104-12.879a1.987 1.987 0 0 1 1.398-1.464c.697-.195 1.447 0 1.959.512l3.63 3.64c.01-.065.041-.118.053-.181zm-14.47-22.335c3.577 0 6.678.785 8.295 2.101l-2.516 3.092c-.598-.485-2.629-1.205-5.78-1.205s-5.18.72-5.778 1.205l-2.516-3.092c1.62-1.316 4.72-2.101 8.295-2.101zm7.716 8.358c-1.273 2.816-4.128 4.635-7.277 4.635-3.12 0-5.957-1.819-7.23-4.635l3.634-1.644c.631 1.391 2.041 2.29 3.597 2.29 1.583 0 3.017-.9 3.644-2.29zm-13.636 2.181c.088.709.289 1.396.6 2.037l-3.586 1.741a10.506 10.506 0 0 1-.972-3.291zm-5.939.779-1.365 8.407.029.08h3.867v3.988h-5.24c-.828 0-1.568-.51-1.864-1.283l-.71-1.866a1.988 1.988 0 0 1-.105-1.03l1.451-8.935zM31.076 37.442c3.575 0 6.675.785 8.294 2.101l-2.517 3.092c-.598-.485-2.627-1.205-5.777-1.205-3.198 0-5.247.72-5.842 1.205l-2.516-3.092c1.616-1.316 4.741-2.101 8.358-2.101zm-.563 12.993c-3.118 0-5.958-1.819-7.23-4.635l3.633-1.644c.639 1.412 2.018 2.29 3.597 2.29 1.58 0 2.958-.878 3.597-2.29l3.634 1.644c-1.274 2.816-4.111 4.635-7.231 4.635zm12.82 19.655c-3.579 0-7.019-1.379-9.674-3.883l2.734-2.902c3.865 3.641 10.204 3.566 13.813.027l2.792 2.847c-2.573 2.522-6.004 3.911-9.665 3.911zm8.19-13.521a10.435 10.435 0 0 1-2.781-2.014l2.836-2.804a6.488 6.488 0 0 0 1.721 1.247zm4.635 1.079c-.403.002-.892-.027-1.332-.082l.489-3.957c.274.033.543.031.835.051.438 0 .871-.045 1.293-.133l.81 3.906c-.689.143-1.394.215-2.095.215zm5.303-1.457-2.042-3.423a6.543 6.543 0 0 0 1.624-1.373l3.04 2.582a10.428 10.428 0 0 1-2.622 2.214zm4.382-5.17-3.718-1.445c.257-.66.401-1.357.426-2.074l3.986.148a10.3 10.3 0 0 1-.694 3.371z" opacity="1" data-original="#000000"/></g></svg>