<svg xmlns="http://www.w3.org/2000/svg" version="1.1" xmlns:xlink="http://www.w3.org/1999/xlink" width="512" height="512" x="0" y="0" viewBox="0 0 509.998 509.998" style="enable-background:new 0 0 512 512" xml:space="preserve"><g><path d="M160.759 264.233a7.502 7.502 0 0 0 6.84 4.416 7.5 7.5 0 0 0 6.831-10.588 141.301 141.301 0 0 0-15.45-26.24 7.501 7.501 0 0 0-12.03 8.959 126.33 126.33 0 0 1 13.809 23.453zM169.21 290.097c.521 2.475.975 4.999 1.346 7.503l3.056 20.589a7.501 7.501 0 0 0 14.838-2.202l-3.056-20.59a141.678 141.678 0 0 0-1.506-8.395 7.501 7.501 0 0 0-14.678 3.095zM106.07 205.323a126.164 126.164 0 0 1 22.364 15.509 7.471 7.471 0 0 0 4.912 1.835 7.5 7.5 0 0 0 4.918-13.165 141.087 141.087 0 0 0-25.029-17.356 7.499 7.499 0 0 0-10.171 3.006 7.499 7.499 0 0 0 3.006 10.171zM339.318 267.981a7.468 7.468 0 0 0 3.08.666 7.503 7.503 0 0 0 6.841-4.417 126.336 126.336 0 0 1 13.808-23.449 7.5 7.5 0 0 0-12.029-8.961 141.343 141.343 0 0 0-15.45 26.24 7.499 7.499 0 0 0 3.75 9.921zM376.652 222.667a7.473 7.473 0 0 0 4.912-1.835 126.164 126.164 0 0 1 22.364-15.509 7.5 7.5 0 0 0 3.006-10.172 7.496 7.496 0 0 0-10.172-3.006 141.043 141.043 0 0 0-25.028 17.356 7.5 7.5 0 0 0-.75 10.58 7.48 7.48 0 0 0 5.668 2.586zM327.866 324.507a7.503 7.503 0 0 0 8.519-6.318l3.056-20.587c.373-2.513.826-5.039 1.346-7.508a7.5 7.5 0 0 0-5.794-8.884c-4.046-.856-8.031 1.739-8.884 5.794a142.456 142.456 0 0 0-1.506 8.395l-3.056 20.589a7.502 7.502 0 0 0 6.319 8.519z" opacity="1" /><path d="M486.648 85.108a7.503 7.503 0 0 0-8.841 5.86l-1.785 8.803a31.06 31.06 0 0 1-21.352 23.541c-7.798 2.392-13.48 8.872-14.83 16.912l-5.988 35.637-10.022 4.183a7.502 7.502 0 0 0 5.778 13.844l1.308-.546-7.318 43.557c-7.144 42.518-34.178 79.902-72.317 100.004l-19.172 10.105.03-.204a7.502 7.502 0 0 0-6.318-8.52c-4.089-.613-7.911 2.22-8.52 6.318l-1.644 11.077-15.121 7.97a97.619 97.619 0 0 1-91.074 0l-15.121-7.97-1.644-11.077a7.5 7.5 0 0 0-14.838 2.202l.03.204-19.171-10.105c-38.139-20.102-65.174-57.486-72.317-100.004l-7.318-43.556 1.307.545a7.502 7.502 0 0 0 5.777-13.844l-10.021-4.182-5.988-35.637c-1.352-8.041-7.034-14.521-14.83-16.912a31.061 31.061 0 0 1-21.352-23.54l-12.71-62.68a18.3 18.3 0 0 1 2.631-13.728 18.374 18.374 0 0 1 24.8-5.765l8.816 5.229a7.5 7.5 0 0 0 7.651-12.902l-8.816-5.229C40.92-4.448 21.149.145 11.34 15.16c-4.836 7.401-6.532 16.249-4.775 24.913l12.71 62.68a46.051 46.051 0 0 0 31.655 34.901 6.363 6.363 0 0 1 4.435 5.057l16.243 96.673c3.908 23.26 13.278 45.655 27.099 64.767 7.812 10.803 17.069 20.583 27.407 29.032l-2.788 55.373a7.5 7.5 0 0 0 14.981.754l2.297-45.62a152.479 152.479 0 0 0 11.119 6.482l50.744 26.747c16.447 8.669 34.489 13.003 52.531 13.003s36.085-4.334 52.531-13.003l50.744-26.747c4.135-2.18 8.167-4.56 12.088-7.113l4.434 88.071c.35 6.965 3.812 13.275 9.499 17.312l84.761 60.17a7.492 7.492 0 0 0 10.457-1.773 7.5 7.5 0 0 0-1.773-10.457l-84.761-60.17a7.581 7.581 0 0 1-3.202-5.835l-4.934-97.996c9.95-8.266 18.88-17.765 26.449-28.231 13.82-19.111 23.19-41.507 27.099-64.766l16.243-96.676a6.362 6.362 0 0 1 4.434-5.055 46.052 46.052 0 0 0 31.656-34.901l1.785-8.804a7.5 7.5 0 0 0-5.86-8.84zM498.658 15.16a33.342 33.342 0 0 0-45.009-10.462l-8.815 5.229a7.5 7.5 0 0 0 7.65 12.902L461.3 17.6a18.371 18.371 0 0 1 24.801 5.765 18.303 18.303 0 0 1 2.631 13.728L484.229 59.3a7.5 7.5 0 1 0 14.701 2.98l4.503-22.207c1.757-8.664.061-17.512-4.775-24.913zM129.587 413.364c-4.154-.228-7.66 2.976-7.868 7.113l-.499 9.899a7.581 7.581 0 0 1-3.202 5.835L33.257 496.38a7.5 7.5 0 1 0 8.683 12.231l84.761-60.169c5.687-4.037 9.149-10.347 9.5-17.312l.499-9.899a7.499 7.499 0 0 0-7.113-7.867z" opacity="1"/><path d="m231.601 170.137 1.234-.616a2.784 2.784 0 0 1 2.996.329l6.189 5.032c3.76 3.056 8.369 4.584 12.979 4.584s9.219-1.528 12.979-4.585l6.188-5.031a2.783 2.783 0 0 1 2.999-.328l1.227.613a24.172 24.172 0 0 0 27.782-4.403c8.769-8.642 9.649-22.462 2.048-32.146l-17.788-22.664a12.335 12.335 0 0 1-2.619-7.58V77.056c0-4.143-3.357-7.5-7.5-7.5s-7.5 3.357-7.5 7.5v26.285a27.397 27.397 0 0 0 5.82 16.842l17.788 22.664a9.17 9.17 0 0 1-.777 12.201 9.176 9.176 0 0 1-10.548 1.67l-1.227-.613a17.81 17.81 0 0 0-19.168 2.106l-6.188 5.03a5.6 5.6 0 0 1-7.035.001l-6.188-5.031a17.809 17.809 0 0 0-19.164-2.108l-1.233.616a9.17 9.17 0 0 1-10.543-1.671 9.17 9.17 0 0 1-.778-12.201l17.789-22.665a27.404 27.404 0 0 0 5.819-16.841V77.056c0-4.143-3.358-7.5-7.5-7.5s-7.5 3.357-7.5 7.5v26.285c0 2.736-.93 5.429-2.619 7.58l-17.788 22.664c-7.602 9.684-6.721 23.504 2.049 32.147a24.176 24.176 0 0 0 27.777 4.405zM303.731 241.743a7.501 7.501 0 0 0 3.918-13.901l-26.928-16.456a15.231 15.231 0 0 0-15.058-.44l-10.165 5.423-10.164-5.423a15.233 15.233 0 0 0-15.058.44l-26.928 16.456a7.5 7.5 0 1 0 7.821 12.799l26.928-16.456a.186.186 0 0 1 .176-.005l10.256 5.472a14.781 14.781 0 0 0 13.938 0l10.259-5.473a.17.17 0 0 1 .173.006l26.928 16.456a7.458 7.458 0 0 0 3.904 1.102zM275.659 248.238l-6.921 4.568a24.903 24.903 0 0 1-27.479 0l-6.919-4.568a7.5 7.5 0 0 0-8.265 12.518l6.919 4.568a39.892 39.892 0 0 0 22.005 6.619 39.897 39.897 0 0 0 22.004-6.619l6.92-4.568a7.5 7.5 0 1 0-8.264-12.518z" opacity="1" /></g></svg>