<svg xmlns="http://www.w3.org/2000/svg" version="1.1" xmlns:xlink="http://www.w3.org/1999/xlink" width="512" height="512" x="0" y="0" viewBox="0 0 1.707 1.707" style="enable-background:new 0 0 512 512" xml:space="preserve" fill-rule="evenodd" class=""><g><path d="M1.012 1.706H.308a.022.022 0 0 1-.021-.027c.025-.097.06-.176.093-.254.071-.161.127-.289.048-.49C.28.564.344.344.425.226.522.082.698 0 .908 0c.107 0 .215.022.313.063a.63.63 0 0 1 .247.179c.09.11.122.246.091.391-.024.114-.004.153.055.25.016.025.027.063.011.092-.008.014-.025.031-.063.032h-.05l.022.05a.022.022 0 0 1-.005.024l-.027.027.024.035a.022.022 0 0 1-.003.027l-.043.042v.063c0 .077-.038.121-.105.121h-.003c-.049 0-.165-.004-.209-.015-.004.002-.02.017-.05.088-.022.05-.042.11-.058.159l-.023.065a.022.022 0 0 1-.02.013zM.528.918a.022.022 0 0 1-.02-.014A1.037 1.037 0 0 1 .425.53c0-.15.05-.266.152-.344a.484.484 0 0 1 .215-.09.703.703 0 0 1 .231-.001.022.022 0 0 1-.007.042.545.545 0 0 0-.412.083c-.09.07-.136.174-.136.31 0 .103.028.227.08.357a.022.022 0 0 1-.02.03zM.275 1.233h-.18a.022.022 0 0 1 0-.043h.18a.022.022 0 0 1 0 .043zM.275 1.077a.022.022 0 0 1-.016-.007L.132.932a.022.022 0 0 1 .032-.03l.127.139a.022.022 0 0 1-.016.036z" opacity="1" /><path d="M.148 1.527a.022.022 0 0 1-.016-.036l.127-.138a.022.022 0 1 1 .032.029l-.127.138a.022.022 0 0 1-.016.007z" opacity="1" /></g></svg>