<svg xmlns="http://www.w3.org/2000/svg" version="1.1" xmlns:xlink="http://www.w3.org/1999/xlink" width="512" height="512" x="0" y="0" viewBox="0 0 512 512" style="enable-background:new 0 0 512 512" xml:space="preserve"><g><path d="M287.697 107.31c-5.306 1.533-8.364 7.077-6.832 12.383.95 3.288 1.972 6.612 3.037 9.881a10.003 10.003 0 0 0 9.506 6.905c1.026 0 2.071-.16 3.1-.495 5.252-1.711 8.121-7.354 6.41-12.605a291.71 291.71 0 0 1-2.838-9.236c-1.534-5.307-7.078-8.363-12.383-6.833zM279.364 54.003c-5.496.535-9.519 5.426-8.983 10.923.333 3.419.729 6.876 1.179 10.275.665 5.031 4.961 8.691 9.901 8.691.437 0 .878-.028 1.322-.087 5.476-.724 9.328-5.749 8.604-11.224a281.51 281.51 0 0 1-1.101-9.595c-.534-5.496-5.417-9.516-10.922-8.983zM301.093 171.498l4.354 9.003a10.002 10.002 0 0 0 13.357 4.649c4.972-2.404 7.054-8.385 4.649-13.356l-4.354-9.003c-2.406-4.974-8.388-7.051-13.356-4.649-4.972 2.404-7.054 8.384-4.65 13.356zM417.62 368.104c-.938-3.383-2.269-6.85-4.188-10.912-2.36-4.992-8.319-7.128-13.314-4.77-4.993 2.359-7.129 8.32-4.77 13.314 1.421 3.005 2.374 5.456 3 7.713 1.228 4.428 5.249 7.33 9.63 7.33.885 0 1.785-.119 2.679-.367 5.322-1.474 8.439-6.986 6.963-12.308zM348.103 268.729l4.353 9.003a10 10 0 0 0 13.356 4.65c4.973-2.403 7.055-8.383 4.65-13.355l-4.353-9.003c-2.403-4.974-8.384-7.054-13.355-4.65-4.973 2.403-7.055 8.383-4.651 13.355zM324.598 220.113l4.353 9.003a10 10 0 0 0 13.356 4.65c4.973-2.403 7.055-8.383 4.65-13.355l-4.353-9.003c-2.403-4.974-8.385-7.054-13.355-4.65-4.973 2.403-7.055 8.383-4.651 13.355zM278.95 30c5.522 0 10-4.478 10-10V10c0-5.522-4.478-10-10-10s-10 4.478-10 10v10c0 5.522 4.477 10 10 10zM389.315 330.999c4.973-2.403 7.055-8.383 4.65-13.355l-4.353-9.003c-2.403-4.973-8.384-7.054-13.355-4.65-4.973 2.403-7.055 8.383-4.65 13.355l4.353 9.003a10 10 0 0 0 13.355 4.65zM404.925 404.363c-4.349-3.405-10.634-2.642-14.039 1.705a40.503 40.503 0 0 1-5.536 5.785c-4.194 3.594-4.682 9.906-1.088 14.101a9.975 9.975 0 0 0 7.599 3.494 9.963 9.963 0 0 0 6.501-2.406 60.662 60.662 0 0 0 8.269-8.64c3.406-4.348 2.642-10.633-1.706-14.039zM337.075 431.527c-.254.061.248-.025 0 0zM249.519 437.222c-1.186 0 1.195.078 0 0z" opacity="1" /><path d="m368.759 362.208-77.368-131.821a354.87 354.87 0 0 1-48.774-179.465V10c0-5.522-4.477-10-10-10s-10 4.478-10 10v40.922a374.877 374.877 0 0 0 51.526 189.588l77.368 131.821c4.339 7.394 4.738 16.242 1.096 24.278-3.632 8.012-10.51 13.548-18.894 15.217-6.336.901-13.152-.004-18.29-2.429-14.813-6.993-32.224-5.894-46.573 2.934-5.929 3.646-12.786 5.333-19.819 4.876-15.739-1.023-30.353-15.737-31.273-31.488-.272-4.647.38-9.183 1.938-13.48 1.881-5.193-.803-10.928-5.995-12.809-5.192-1.884-10.927.802-12.809 5.994-2.488 6.867-3.531 14.088-3.1 21.462 1.521 26.032 25.711 48.646 51.727 50.336 9.936 0 21.343-2.649 29.81-7.856 7.458-4.59 16.222-5.713 24.089-3.235a95.914 95.914 0 0 0-30.66 76.487c.328 5.302 4.73 9.382 9.971 9.382.208 0 .418-.006.628-.02 5.513-.341 9.704-5.086 9.362-10.599-1.729-27.922 11.907-54.396 35.607-69.223 2.668.024 6.11-.268 8.749-.632 14.478-2.96 27.543-12.971 33.748-26.66 6.268-13.829 5.498-29.776-2.064-42.658zM155.8 288.72h-26.126c-5.523 0-10 4.478-10 10s4.477 10 10 10h1.983l-34.714 34.715c-3.905 3.905-3.905 10.237 0 14.143 1.953 1.952 4.512 2.929 7.071 2.929s5.119-.977 7.071-2.929l34.715-34.715v1.984c0 5.522 4.477 10 10 10s10-4.478 10-10V298.72c0-5.523-4.477-10-10-10zM168.863 177.918h-26.126c-5.523 0-10 4.478-10 10s4.477 10 10 10h1.983l-34.714 34.715c-3.905 3.905-3.905 10.237 0 14.143 1.953 1.952 4.512 2.929 7.071 2.929s5.119-.977 7.071-2.929l34.715-34.715v1.984c0 5.522 4.477 10 10 10s10-4.478 10-10v-26.126c0-5.523-4.477-10.001-10-10.001z" opacity="1"/></g></svg>